<svg width="35" height="34" viewBox="0 0 35 34" fill="none" xmlns="http://www.w3.org/2000/svg">
<path d="M29.0305 4.58596e-07H5.0546C3.73758 0.00169571 2.4748 0.525662 1.54372 1.45714C0.612649 2.38861 0.08902 3.65152 0.0878906 4.96854V28.9468C0.0890209 30.2636 0.612588 31.5262 1.54372 32.4573C2.47486 33.3884 3.73778 33.912 5.0546 33.9131H29.0347C30.352 33.9131 31.6159 33.39 32.5476 32.4587C33.4794 31.5274 34.0029 30.2642 34.0035 28.9468V4.96854C34.0032 4.31578 33.8742 3.66938 33.6241 3.06642C33.3741 2.46346 33.0073 1.91564 32.5456 1.45427C32.0838 0.9929 31.5355 0.627047 30.9324 0.377506C30.3292 0.127966 29.6833 -0.000279875 29.0305 4.58596e-07ZM17.04 26.407C15.7992 26.4073 14.5712 26.1631 13.4249 25.6884C12.2785 25.2136 11.2362 24.5177 10.359 23.6402C9.48172 22.7628 8.78674 21.721 8.31225 20.5746C7.83776 19.4281 7.59367 18.1995 7.59423 16.9587C7.59367 15.718 7.83776 14.4893 8.31225 13.3428C8.78674 12.1964 9.48172 11.1546 10.359 10.2772C11.2362 9.39976 12.2785 8.7038 13.4249 8.22905C14.5712 7.7543 15.7992 7.5101 17.04 7.51039C19.5458 7.51039 21.949 8.50581 23.7209 10.2777C25.4928 12.0496 26.4888 14.4529 26.4888 16.9587C26.4882 19.4642 25.4917 21.8668 23.7199 23.6383C21.9481 25.4097 19.5454 26.4048 17.04 26.4048V26.407ZM27.9676 8.26592C27.6823 8.26592 27.3994 8.20969 27.1359 8.10048C26.8725 7.99127 26.6331 7.83122 26.4315 7.62945C26.2299 7.42767 26.0704 7.18804 25.9615 6.92446C25.8525 6.66087 25.7966 6.37846 25.7968 6.09324C25.7966 5.80802 25.8525 5.52548 25.9615 5.26189C26.0704 4.99831 26.2299 4.75881 26.4315 4.55703C26.6331 4.35526 26.8725 4.19521 27.1359 4.086C27.3994 3.97679 27.6823 3.92056 27.9676 3.92056C28.253 3.92028 28.5354 3.97626 28.7992 4.08535C29.0629 4.19443 29.3029 4.35445 29.5047 4.55625C29.7065 4.75806 29.8666 4.99778 29.9757 5.2615C30.0848 5.52523 30.1406 5.80784 30.1404 6.09324C30.1404 6.6689 29.9117 7.22096 29.5047 7.62801C29.0976 8.03507 28.5453 8.2637 27.9696 8.2637L27.9676 8.26592Z" fill="black"/>
<path d="M17.0352 22.8958C20.2767 22.8958 22.9044 20.2681 22.9044 17.0267C22.9044 13.7852 20.2767 11.1575 17.0352 11.1575C13.7937 11.1575 11.166 13.7852 11.166 17.0267C11.166 20.2681 13.7937 22.8958 17.0352 22.8958Z" fill="black"/>
</svg>
