<svg width="40" height="34" viewBox="0 0 40 34" fill="none" xmlns="http://www.w3.org/2000/svg">
<path d="M38.6149 0.650245C37.0173 1.66672 35.2434 2.36476 33.3882 2.70698C32.6278 1.86479 31.7052 1.19 30.6775 0.724372C29.6498 0.258747 28.5389 0.0122017 27.4136 0C22.9334 0 19.2001 3.78967 19.2001 8.55392C19.2183 9.20839 19.2897 9.86022 19.4133 10.5028C12.5875 10.1787 6.6139 6.71393 2.56052 1.62482C1.8224 2.94278 1.45355 4.44061 1.49391 5.9561C1.51286 7.35078 1.85026 8.72199 2.47959 9.96192C3.10891 11.2018 4.01299 12.2767 5.12076 13.1019C3.73413 13.1019 2.56077 12.6687 1.38741 12.0193V12.1276C1.38741 16.2411 4.16093 19.7072 8.00105 20.4651C7.31116 20.6866 6.59115 20.7962 5.86759 20.7899C5.36735 20.8118 4.86629 20.7754 4.3742 20.6815C4.89022 22.3586 5.90588 23.8319 7.28125 24.8985C8.65661 25.9652 10.324 26.5726 12.0536 26.6371C9.19178 29.0079 5.61387 30.3078 1.91993 30.3187C1.27811 30.3366 0.635915 30.3003 0 30.2103C3.74316 32.6895 8.11747 34.0065 12.5869 34C27.6274 34 35.9477 21.0064 35.9477 9.74551V8.66282C37.5627 7.45625 38.9377 5.94987 40 4.22343C38.5066 4.87315 36.9067 5.41449 35.3066 5.52287C36.8176 4.22709 37.9598 2.54479 38.6149 0.650245Z" fill="black"/>
</svg>
